<?xml version="1.0" encoding="utf-8"?>
<!-- Generator: Adobe Illustrator 26.3.1, SVG Export Plug-In . SVG Version: 6.00 Build 0)  -->
<svg version="1.1" id="Layer_2_00000138531355047137941550000013219173316163654298_"
	 xmlns="http://www.w3.org/2000/svg" xmlns:xlink="http://www.w3.org/1999/xlink" x="0px" y="0px" viewBox="0 0 50 50"
	 style="enable-background:new 0 0 50 50;" xml:space="preserve">
<style type="text/css">
	.st0{fill:none;stroke:#7A5197;stroke-width:2;stroke-linecap:round;stroke-linejoin:round;}
</style>
<g id="icons">
	<g>
		<polyline class="st0" points="38.5,16.1 49,1 34.8,12.9 		"/>
		<path class="st0" d="M10.1,46.7C10,48.1,10,49,10,49h29c0-10-10-11.9-10-19.3"/>
		<path class="st0" d="M29.1,8.7C27.3,7.6,25.2,7,23,7c-4.7,0-8.7,2.7-10.7,6.6C7.5,15.1,4,19.7,4,25c0,1.2,0.2,2.3,0.5,3.4l0,0
			C3.4,29.4,1,32,1,36c0,6,6.3,6.7,3,13c0,0,7-0.9,8.8-5.7c1.7-4.7-1.5-8-1.5-8l0,0c1.8-10.4,6-23,16.2-24.2C29.8,6.7,34,5,34,5v7.4
			c2.5,1.4,4.6,3.6,6.2,5.9c3.2,4.3,6.8,8.6,6.8,9.7c0,2-3,5-5,5s-7.2-4.1-7.2-4.1l0,0C33.7,29.6,32.4,30,31,30c-3.9,0-7-3.1-7-7"/>
	</g>
</g>
</svg>
