<?xml version="1.0" encoding="UTF-8"?><svg id="Layer_2" xmlns="http://www.w3.org/2000/svg" viewBox="0 0 50 50"><defs><style>.cls-1{stroke-linecap:round;}.cls-1,.cls-2,.cls-3{fill:none;stroke:#4d4d4d;stroke-width:2px;}.cls-1,.cls-3{stroke-linejoin:round;}.cls-2{stroke-miterlimit:10;}</style></defs><g id="icons"><g><path class="cls-1" d="M13.33,30.73c-.21-.85-.33-1.76-.33-2.73,0-11.25,13-21,13-21l-3.47-3.66s.21-1.56,1.95-1.56,1.95-.78,3.52-.78,1.77,.78,3.52,.78,1.95,1.56,1.95,1.56l-3.47,3.66s13,9.75,13,21c0,2.55-.79,4.69-2.04,6.28"/><path class="cls-1" d="M25,22.31s.17,1.69,3,1.69c2.04,0,3-.93,3-2.06,0-1.32-1.05-1.98-3-2.44s-3-1.14-3-2.46c0-1.12,.96-2.04,3-2.04,2.83,0,3,1.69,3,1.69"/><line class="cls-2" x1="28" y1="12" x2="28" y2="15"/><line class="cls-2" x1="28" y1="24" x2="28" y2="27"/><line class="cls-3" x1="26" y1="7" x2="30" y2="7"/><polygon class="cls-3" points="6.37 49 13 46.49 7.64 31.95 1 34.45 6.37 49"/><path class="cls-1" d="M8.32,33.8l4.34-2.7c1.66-.92,4.57-2.63,8.84-1.95,3.68,.59,5.5,1.84,9.5,1.84h3c1.66,0,3,1.34,3,3s-1.34,3-3,3"/><path class="cls-1" d="M11.72,43h21.75c1.77,0,3.5-.47,5.03-1.36l9.31-5.42c.7-.38,1.19-1.12,1.19-1.97,0-1.24-1.01-2.25-2.25-2.25-.39,0-.77,.12-1.11,.26l-10.45,4.49c-.37,.16-.78,.24-1.18,.24h-11.01"/></g></g></svg>