<?xml version="1.0" encoding="UTF-8"?><svg id="Layer_2" xmlns="http://www.w3.org/2000/svg" viewBox="0 0 50 50"><defs><style>.cls-1{stroke-linecap:round;}.cls-1,.cls-2{fill:none;stroke:#4d4d4d;stroke-linejoin:round;stroke-width:2px;}</style></defs><g id="icons"><g><polyline class="cls-1" points="27 13 31 17 41 7"/><path class="cls-1" d="M21,1h24c2.21,0,4,1.79,4,4V22c0,2.21-1.79,4-4,4h-4v7l-7-7h-13c-2.21,0-4-1.79-4-4V5c0-2.21,1.79-4,4-4Z"/><path class="cls-2" d="M30,26v12c0,2.21-1.79,4-4,4h-10l-7,7v-7H5c-2.21,0-4-1.79-4-4v-15c0-2.21,1.79-4,4-4h12"/></g></g></svg>