<?xml version="1.0" encoding="UTF-8"?><svg id="Layer_2" xmlns="http://www.w3.org/2000/svg" viewBox="0 0 54 46"><defs><style>.cls-1{fill:#fff;}.cls-2,.cls-3{stroke-linecap:round;}.cls-2,.cls-3,.cls-4,.cls-5{fill:none;stroke:#4d4d4d;stroke-width:2px;}.cls-2,.cls-4{stroke-miterlimit:10;}.cls-3,.cls-5{stroke-linejoin:round;}</style></defs><g id="icons"><g><rect class="cls-4" x="1" y="1" width="52" height="38" rx="2" ry="2"/><line class="cls-4" x1="1" y1="35" x2="53" y2="35"/><line class="cls-2" x1="16" y1="45" x2="38" y2="45"/><line class="cls-4" x1="24" y1="45" x2="24" y2="39"/><line class="cls-4" x1="30" y1="45" x2="30" y2="39"/><polygon class="cls-5" points="17 24 17 12 27 8 37 12 37 24 27 28 17 24"/><polyline class="cls-5" points="37 12 27 16 17 12"/><g><line class="cls-5" x1="27" y1="16" x2="27" y2="28"/><line class="cls-5" x1="27" y1="16" x2="27" y2="28"/></g><path class="cls-1" d="M42.58,23.18l-6-3.73s-.06-.02-.08-.04c-.19-.11-.39-.2-.6-.27-.02,0-.04-.02-.06-.02-.23-.07-.46-.1-.7-.11-.06,0-.12,0-.19,0-.18,0-.36,.02-.55,.06-.06,.01-.12,.02-.19,.04-.23,.06-.46,.14-.68,.27-.22,.12-.41,.27-.58,.44-.05,.04-.09,.09-.13,.14-.13,.13-.24,.28-.34,.43-.03,.05-.07,.1-.1,.16-.11,.21-.21,.42-.27,.65,0,.02,0,.05-.01,.07-.05,.21-.08,.43-.09,.65,0,.03-.01,.06-.01,.09v7.16c0,1.66,1.34,3,3,3,.7,0,1.34-.25,1.85-.66l.53,.95c.55,.99,1.57,1.54,2.63,1.54,.49,0,.99-.12,1.45-.38,1.45-.8,1.97-2.63,1.17-4.08l-.56-1.02c.6-.22,1.13-.63,1.49-1.21,.88-1.41,.44-3.26-.96-4.13Z"/><polyline class="cls-3" points="41 25.73 35 22 35 29.16"/><line class="cls-3" x1="35" y1="22" x2="40" y2="31"/><line class="cls-5" x1="40" y1="13" x2="48" y2="13"/><line class="cls-5" x1="6" y1="23" x2="14" y2="23"/><line class="cls-5" x1="40" y1="17" x2="46" y2="17"/></g></g></svg>