<?xml version="1.0" encoding="UTF-8"?><svg id="Layer_2" xmlns="http://www.w3.org/2000/svg" viewBox="0 0 52 46"><defs><style>.cls-1{fill:#fff;}.cls-2{fill:#4d4d4d;}.cls-3,.cls-4{stroke-linecap:round;}.cls-3,.cls-4,.cls-5,.cls-6{fill:none;stroke:#4d4d4d;stroke-width:2px;}.cls-3,.cls-5{stroke-miterlimit:10;}.cls-4,.cls-6{stroke-linejoin:round;}</style></defs><g id="icons"><g><circle class="cls-3" cx="29" cy="23" r="8"/><circle class="cls-3" cx="29" cy="23" r="15"/><circle class="cls-3" cx="29" cy="23" r="22"/><path class="cls-1" d="M20.24,20l-5.12-5.12c-.56-.56-1.33-.88-2.12-.88H1v7.24l1.76,1.76-1.76,1.76v7.24H13c.8,0,1.56-.32,2.12-.88l5.12-5.12h8.76v-6h-8.76Z"/><circle class="cls-2" cx="29" cy="23" r="2"/><polygon class="cls-4" points="19 23 13 17 1 17 7 23 1 29 13 29 19 23"/><line class="cls-5" x1="29" y1="23" x2="7" y2="23"/><polyline class="cls-6" points="7 17 13 23 7 29"/></g></g></svg>