<?xml version="1.0" encoding="UTF-8"?><svg id="Layer_2" xmlns="http://www.w3.org/2000/svg" viewBox="0 0 50 50"><defs><style>.cls-1{stroke-linecap:round;}.cls-1,.cls-2{fill:none;stroke:#4d4d4d;stroke-linejoin:round;stroke-width:2px;}</style></defs><g id="icons"><g><line class="cls-2" x1="19.8" y1="9" x2="30.2" y2="9"/><circle class="cls-1" cx="25" cy="18" r="4"/><line class="cls-1" x1="25" y1="31" x2="25" y2="49"/><line class="cls-1" x1="43" y1="15" x2="43" y2="21"/><line class="cls-1" x1="40" y1="18" x2="46" y2="18"/><line class="cls-1" x1="47" y1="37" x2="47" y2="41"/><line class="cls-1" x1="45" y1="39" x2="49" y2="39"/><line class="cls-1" x1="6" y1="19" x2="6" y2="23"/><line class="cls-1" x1="4" y1="21" x2="8" y2="21"/><line class="cls-1" x1="4" y1="31" x2="4" y2="37"/><line class="cls-1" x1="1" y1="34" x2="7" y2="34"/><path class="cls-1" d="M15.92,24.03c0,10.06,4.08,21.97,4.08,21.97h10s4.08-11.91,4.08-21.97C34.08,11.31,25,1,25,1c0,0-9.08,10.31-9.08,23.03Z"/><g><path class="cls-2" d="M16.52,31.48l-5.52,5.52v12s1.21-6.01,7.33-8.71"/><path class="cls-2" d="M31.67,40.29c6.13,2.7,7.33,8.71,7.33,8.71v-12l-5.52-5.52"/></g></g></g></svg>