<?xml version="1.0" encoding="UTF-8"?><svg id="Layer_2" xmlns="http://www.w3.org/2000/svg" viewBox="0 0 50 46"><defs><style>.cls-1{stroke-dasharray:0 0 2 4;}.cls-1,.cls-2{stroke-linecap:round;}.cls-1,.cls-2,.cls-3{fill:none;stroke:#4d4d4d;stroke-width:2px;}.cls-1,.cls-3{stroke-miterlimit:10;}.cls-4{fill:#fff;}.cls-2{stroke-linejoin:round;}</style></defs><g id="icons"><g><g><polygon class="cls-2" points="33 15 17 11 1 15 1 45 17 41 33 45 49 41 49 11 33 15"/><circle class="cls-3" cx="9" cy="34" r="3"/><path class="cls-1" d="M9,27v-2c0-3.87,3.13-7,7-7s7,3.13,7,7v5c0,3.87,3.13,7,7,7s7-3.13,7-7v-6"/></g><g><path class="cls-4" d="M46.59,3.46l-3.93-2.46h-8.66V9.94s0,.08,0,.13v8.93h6v-7.15l6.34-3.17c.97-.49,1.6-1.46,1.65-2.54,.05-1.08-.49-2.11-1.41-2.69Z"/><polyline class="cls-2" points="37 21 37 1 45 6 37 10"/><line class="cls-2" x1="34" y1="21" x2="40" y2="21"/></g></g></g></svg>