<?xml version="1.0" encoding="UTF-8"?><svg id="Layer_2" xmlns="http://www.w3.org/2000/svg" viewBox="0 0 62 35"><defs><style>.cls-1{stroke-linecap:round;}.cls-1,.cls-2,.cls-3{fill:none;stroke:#4d4d4d;stroke-width:2px;}.cls-1,.cls-3{stroke-linejoin:round;}.cls-2{stroke-miterlimit:10;}</style></defs><g id="icons"><g><line class="cls-2" x1="26.29" y1="7" x2="15.67" y2="7"/><polygon class="cls-1" points="1 19.17 6.7 1 16.5 4.28 10.81 22.45 1 19.17"/><polygon class="cls-1" points="45.5 4.28 55.3 1 61 19.17 51.19 22.45 45.5 4.28"/><line class="cls-3" x1="45.1" y1="22.9" x2="50.04" y2="18.85"/><path class="cls-2" d="M15.6,25.41c-.73-.83-.64-2.1,.2-2.82l2.26-1.97c.83-.73,2.1-.64,2.82,.2,.73,.83,.64,2.1-.2,2.82l-2.26,1.97c-.83,.73-2.1,.64-2.82-.2Z"/><path class="cls-2" d="M18.98,27.78c-.73-.83-.64-2.1,.2-2.82l2.26-1.97c.83-.73,2.1-.64,2.82,.2s.64,2.1-.2,2.82l-2.26,1.97c-.83,.73-2.1,.64-2.82-.2Z"/><path class="cls-2" d="M22.36,30.14c-.73-.83-.64-2.1,.2-2.82l2.26-1.97c.83-.73,2.1-.64,2.82,.2,.73,.83,.64,2.1-.2,2.82l-2.26,1.97c-.83,.73-2.1,.64-2.82-.2Z"/><path class="cls-2" d="M25.74,32.5c-.73-.83-.64-2.1,.2-2.82l2.26-1.97c.83-.73,2.1-.64,2.82,.2,.73,.83,.64,2.1-.2,2.82l-2.26,1.97c-.83,.73-2.1,.64-2.82-.2Z"/><path class="cls-3" d="M29.29,32.06l1.89,1.39c.51,.37,1.13,.55,1.76,.55,.6,0,1.21-.18,1.71-.45l11.29-5.73c1.29-.66,1.51-2.58,.33-3.75l-1.22-1.21-9.97-9.85h-4.65s-2.11,3.82-2.54,4.5c-.81,1.28-2.31,1.91-3.88,1.5-1.24-.32-1.93-1.79-1.44-3.16l2.94-7.84s.92-2,3.56-2h16.95"/><line class="cls-3" x1="11.84" y1="19.22" x2="16.08" y2="22.34"/></g></g></svg>