<?xml version="1.0" encoding="UTF-8"?><svg id="Layer_2" xmlns="http://www.w3.org/2000/svg" viewBox="0 0 50 50"><defs><style>.cls-1{fill:none;stroke:#4d4d4d;stroke-linecap:round;stroke-linejoin:round;stroke-width:2px;}</style></defs><g id="icons"><g><polyline class="cls-1" points="38.45 16.08 49 1 34.76 12.86"/><path class="cls-1" d="M10.07,46.65c-.07,1.48-.07,2.35-.07,2.35h29c0-9.99-9.99-11.92-9.99-19.29"/><path class="cls-1" d="M29.13,8.68c-1.79-1.07-3.89-1.68-6.13-1.68-4.68,0-8.72,2.68-10.7,6.59-4.82,1.56-8.3,6.08-8.3,11.41,0,1.19,.17,2.33,.49,3.41h0c-1.08,.96-3.49,3.56-3.49,7.59,0,6.02,6.32,6.68,3,13,0,0,7.02-.92,8.78-5.74,1.7-4.65-1.5-7.99-1.5-7.99h0c1.78-10.35,6.02-22.97,16.17-24.17,2.37-4.36,6.55-6.09,6.55-6.09v7.4c2.48,1.39,4.6,3.64,6.25,5.91,3.15,4.33,6.75,8.62,6.75,9.69,0,2-3,5-5,5s-7.24-4.09-7.24-4.09h0c-1.09,.69-2.37,1.09-3.76,1.09-3.87,0-7-3.13-7-7"/></g></g></svg>